<?xml version="1.0" encoding="UTF-8" standalone="no"?>
<svg
   width="400"
   height="400"
   version="1.1"
   id="svg1"
   sodipodi:docname="hos0.svg"
   inkscape:export-filename="hos0.png"
   inkscape:export-xdpi="96"
   inkscape:export-ydpi="96"
   inkscape:version="1.4 (86a8ad7, 2024-10-11)"
   xmlns:inkscape="http://www.inkscape.org/namespaces/inkscape"
   xmlns:sodipodi="http://sodipodi.sourceforge.net/DTD/sodipodi-0.dtd"
   xmlns="http://www.w3.org/2000/svg"
   xmlns:svg="http://www.w3.org/2000/svg">
   <sodipodi:namedview
      id="namedview1"
      pagecolor="#505050"
      bordercolor="#eeeeee"
      borderopacity="1"
      inkscape:showpageshadow="0"
      inkscape:pageopacity="0"
      inkscape:pagecheckerboard="0"
      inkscape:deskcolor="#505050"
      inkscape:zoom="2.0175"
      inkscape:cx="200"
      inkscape:cy="200"
      inkscape:window-width="1920"
      inkscape:window-height="1009"
      inkscape:window-x="-8"
      inkscape:window-y="-8"
      inkscape:window-maximized="1"
      inkscape:current-layer="svg1" />
   <defs
      id="defs1" />
   <g
      id="layer1"
      clip-rule="nonzero">
      <path
         id="frame1"
         d="M 50, 50       L 350, 50 350, 350 349,350 349, 51 50, 51 Z"
         fill="#a0a0a0"
         stroke-width="0" />
      <path
         id="frame2"
         d="M 350, 349       L 350, 350 50, 350 50, 51 51, 51 51, 349 Z"
         fill="#a0a0a0"
         stroke-width="0" />
      <path
         id="v_line"
         d=" M 200, 0 L 200, 400"
         stroke="#a0a0a0" />
      <path
         id="h_line"
         d=" M 0, 200 L 400, 200"
         stroke="#a0a0a0" />
      <path
         id="corner1"
         d=" M 49, 49       L 80, 49 80, 52 52, 52 52, 80 49, 80 49, 52 Z"
         fill="#a0a0a0"
         stroke-width="0" />
      <path
         id="corner2"
         d=" M 320, 49       L 351, 49 351, 80 348, 80 348, 52 320, 52 Z"
         fill="#a0a0a0"
         stroke-width="0" />
      <path
         id="corner3"
         d=" M 49, 350       L 80, 350 80, 320 52, 320 52, 348 49, 348 49, 350 Z"
         fill="#a0a0a0"
         stroke-width="0" />
      <path
         id="corner4"
         d=" M 350, 350       L 320, 350 320, 320 348, 320 348, 348 350, 348 350, 350 Z"
         fill="#a0a0a0"
         stroke-width="0" />
   </g>
</svg>